<svg xmlns="http://www.w3.org/2000/svg" width="256" height="256" viewBox="0 0 100 100"><rect width="100" height="100" rx="20" fill="#7d6ee7"></rect><path fill="#fff" d="M22.70 75.50Q15.56 75.50 10.28 72.89Q5 70.28 2.18 65.48Q-0.64 60.68-0.64 54.32L-0.64 54.32Q-0.64 45.50 2.69 38.66Q6.02 31.82 11.72 28.07Q17.42 24.32 24.38 24.32L24.38 24.32Q30.86 24.32 34.22 27.65Q37.58 30.98 37.58 36.44L37.58 36.44Q37.58 40.10 36.29 42.32Q35 44.54 32.60 44.54L32.60 44.54Q30.92 44.54 29.96 43.76Q29.00 42.98 29.00 41.48L29.00 41.48Q29.00 40.94 29.24 39.50L29.24 39.50Q29.60 37.70 29.60 36.62L29.60 36.62Q29.60 31.16 23.78 31.16L23.78 31.16Q19.82 31.16 16.22 33.74Q12.62 36.32 10.40 41.33Q8.18 46.34 8.18 53.24L8.18 53.24Q8.18 60.44 12.20 64.37Q16.22 68.30 24.08 68.30L24.08 68.30Q27.98 68.30 31.97 67.31Q35.96 66.32 40.82 64.28L40.82 64.28Q41.72 63.92 42.32 63.92L42.32 63.92Q43.28 63.92 43.76 64.64Q44.24 65.36 44.24 66.50L44.24 66.50Q44.24 70.16 40.28 71.90L40.28 71.90Q36.02 73.76 31.43 74.63Q26.84 75.50 22.70 75.50L22.70 75.50ZM98.96 61.82Q99.74 61.82 100.19 62.54Q100.64 63.26 100.64 64.52L100.64 64.52Q100.64 66.86 99.50 68.24L99.50 68.24Q96.62 71.72 93.68 73.61Q90.74 75.50 86.72 75.50L86.72 75.50Q82.28 75.50 79.46 72.89Q76.64 70.28 74.18 64.76L74.18 64.76Q72.38 60.80 71.21 58.85Q70.04 56.90 68.90 56.09Q67.76 55.28 66.02 55.10L66.02 55.10L65.36 59.54Q64.10 68.12 60.47 71.90Q56.84 75.68 50.48 75.68L50.48 75.68Q46.34 75.68 43.13 73.67Q39.92 71.66 38.66 68.54L38.66 68.54Q38.24 67.46 38.24 66.20L38.24 66.20Q38.24 64.40 39.08 63.08Q39.92 61.76 41.24 61.76L41.24 61.76Q42.02 61.76 42.56 62.15Q43.10 62.54 43.58 63.50L43.58 63.50Q45.44 66.98 46.85 68.36Q48.26 69.74 50.36 69.74L50.36 69.74Q52.76 69.74 54.47 67.55Q56.18 65.36 56.90 60.80L56.90 60.80L57.74 55.10L56.78 55.10Q55.40 55.10 54.62 54.32Q53.84 53.54 53.84 52.16L53.84 52.16Q53.84 50.60 54.65 49.67Q55.46 48.74 56.66 48.74L56.66 48.74L58.64 48.74Q59.06 45.80 59.24 44.66L59.24 44.66L61.10 31.16Q59.54 30.98 58.16 30.98L58.16 30.98Q53.06 30.98 50.42 32.75Q47.78 34.52 47.78 37.82L47.78 37.82Q47.78 39.32 48.11 40.25Q48.44 41.18 48.98 42.32L48.98 42.32Q49.22 42.80 49.22 43.40L49.22 43.40Q49.22 44.72 47.99 45.71Q46.76 46.70 45.26 46.70L45.26 46.70Q43.34 46.70 42.44 45.02L42.44 45.02Q40.64 41.84 40.64 38.18L40.64 38.18Q40.64 34.40 42.71 31.28Q44.78 28.16 48.98 26.27Q53.18 24.38 59.36 24.38L59.36 24.38Q62.06 24.38 64.31 24.68Q66.56 24.98 69.26 25.82L69.26 25.82Q72.20 26.72 72.20 29.18L72.20 29.18Q72.20 32.48 69.38 32.48L69.38 32.48L67.04 48.62Q74.06 47.90 78.47 42.59Q82.88 37.28 85.82 28.16L85.82 28.16Q86.36 26.48 87.65 25.58Q88.94 24.68 90.92 24.68L90.92 24.68Q92.60 24.68 93.53 25.43Q94.46 26.18 94.46 27.56L94.46 27.56Q94.46 27.98 94.22 28.94L94.22 28.94Q91.22 38.84 85.64 44.66Q80.06 50.48 73.46 52.40L73.46 52.40Q75.74 52.94 77.21 54.02Q78.68 55.10 79.70 56.69Q80.72 58.28 82.04 61.10L82.04 61.10Q83.90 65.06 85.52 66.71Q87.14 68.36 89.30 68.36L89.30 68.36Q91.22 68.36 92.96 67.07Q94.70 65.78 97.34 62.66L97.34 62.66Q98.06 61.82 98.96 61.82L98.96 61.82Z"></path></svg>